<svg width="24" height="24" viewBox="0 0 24 24" fill="none" xmlns="http://www.w3.org/2000/svg">
<path fill-rule="evenodd" clip-rule="evenodd" d="M10.667 5.134L10.165 4.779C9.44859 4.2721 8.59259 3.99992 7.71499 4H7.10299C6.69799 4 6.28999 4.025 5.90899 4.16C3.52599 5.006 1.88699 8.095 2.00599 15.103C2.02999 16.515 2.35999 18.075 3.63399 18.684C4.06858 18.8929 4.54478 19.001 5.02699 19C5.56899 19.0089 6.10145 18.8568 6.55699 18.563C6.96699 18.295 7.32699 17.947 7.68699 17.599C8.13099 17.169 8.57499 16.739 9.11099 16.461C9.69496 16.1582 10.3432 16 11.001 16H13C13.658 16 14.306 16.158 14.89 16.46C15.426 16.739 15.87 17.169 16.315 17.599C16.675 17.947 17.035 18.295 17.443 18.563C17.833 18.819 18.338 19 18.974 19C19.4562 19.001 19.9324 18.8929 20.367 18.684C21.641 18.075 21.971 16.514 21.995 15.103C22.114 8.095 20.475 5.006 18.092 4.161C17.71 4.025 17.3 4 16.897 4H16.285C15.4073 4.00015 14.5512 4.27268 13.835 4.78L13.333 5.134C12.9432 5.40977 12.4775 5.55786 12 5.55786C11.5225 5.55786 11.0568 5.40977 10.667 5.134ZM16.75 8C16.9489 8 17.1397 8.07902 17.2803 8.21967C17.421 8.36032 17.5 8.55109 17.5 8.75C17.5 8.94891 17.421 9.13968 17.2803 9.28033C17.1397 9.42098 16.9489 9.5 16.75 9.5C16.5511 9.5 16.3603 9.42098 16.2197 9.28033C16.079 9.13968 16 8.94891 16 8.75C16 8.55109 16.079 8.36032 16.2197 8.21967C16.3603 8.07902 16.5511 8 16.75 8ZM7.49999 8.25C7.6989 8.25 7.88967 8.32902 8.03032 8.46967C8.17097 8.61032 8.24999 8.80109 8.24999 9V9.75H8.99999C9.1989 9.75 9.38967 9.82902 9.53032 9.96967C9.67097 10.1103 9.74999 10.3011 9.74999 10.5C9.74999 10.6989 9.67097 10.8897 9.53032 11.0303C9.38967 11.171 9.1989 11.25 8.99999 11.25H8.24999V12C8.24999 12.1989 8.17097 12.3897 8.03032 12.5303C7.88967 12.671 7.6989 12.75 7.49999 12.75C7.30108 12.75 7.11031 12.671 6.96966 12.5303C6.82901 12.3897 6.74999 12.1989 6.74999 12V11.25H5.99999C5.80108 11.25 5.61031 11.171 5.46966 11.0303C5.32901 10.8897 5.24999 10.6989 5.24999 10.5C5.24999 10.3011 5.32901 10.1103 5.46966 9.96967C5.61031 9.82902 5.80108 9.75 5.99999 9.75H6.74999V9C6.74999 8.80109 6.82901 8.61032 6.96966 8.46967C7.11031 8.32902 7.30108 8.25 7.49999 8.25ZM19 10.25C19 10.4489 18.921 10.6397 18.7803 10.7803C18.6397 10.921 18.4489 11 18.25 11C18.0511 11 17.8603 10.921 17.7197 10.7803C17.579 10.6397 17.5 10.4489 17.5 10.25C17.5 10.0511 17.579 9.86032 17.7197 9.71967C17.8603 9.57902 18.0511 9.5 18.25 9.5C18.4489 9.5 18.6397 9.57902 18.7803 9.71967C18.921 9.86032 19 10.0511 19 10.25ZM15.25 11C15.4489 11 15.6397 10.921 15.7803 10.7803C15.921 10.6397 16 10.4489 16 10.25C16 10.0511 15.921 9.86032 15.7803 9.71967C15.6397 9.57902 15.4489 9.5 15.25 9.5C15.0511 9.5 14.8603 9.57902 14.7197 9.71967C14.579 9.86032 14.5 10.0511 14.5 10.25C14.5 10.4489 14.579 10.6397 14.7197 10.7803C14.8603 10.921 15.0511 11 15.25 11ZM17.5 11.75C17.5 11.5511 17.421 11.3603 17.2803 11.2197C17.1397 11.079 16.9489 11 16.75 11C16.5511 11 16.3603 11.079 16.2197 11.2197C16.079 11.3603 16 11.5511 16 11.75C16 11.9489 16.079 12.1397 16.2197 12.2803C16.3603 12.421 16.5511 12.5 16.75 12.5C16.9489 12.5 17.1397 12.421 17.2803 12.2803C17.421 12.1397 17.5 11.9489 17.5 11.75Z" fill="currentColor"/>
<path d="M10.1651 4.78L10.6671 5.134C11.0569 5.40977 11.5226 5.55786 12.0001 5.55786C12.4776 5.55786 12.9433 5.40977 13.3331 5.134L13.8351 4.779C14.5514 4.27204 15.4075 3.99986 16.2851 4H16.8971C17.3021 4 17.7101 4.025 18.0911 4.16C20.4741 5.006 22.1121 8.095 21.9941 15.103C21.9701 16.515 21.6401 18.075 20.3661 18.684C19.9315 18.8929 19.4553 19.001 18.9731 19C18.4311 19.0089 17.8986 18.8568 17.4431 18.563C16.5281 17.964 15.8591 16.963 14.8891 16.461C14.3051 16.1582 13.6569 16 12.9991 16H11.0001C10.3421 16 9.69408 16.158 9.11008 16.46C8.14008 16.964 7.47008 17.964 6.55708 18.563C6.10154 18.8568 5.56908 19.0089 5.02708 19C4.54487 19.001 4.06867 18.8929 3.63408 18.684C2.36008 18.075 2.03008 16.514 2.00608 15.103C1.88708 8.095 3.52608 5.006 5.90908 4.16C6.29008 4.025 6.70008 4 7.10308 4H7.71508C8.59308 4 9.44908 4.272 10.1651 4.78Z" stroke="currentColor" stroke-width="1.5" stroke-linecap="round"/>
</svg>
