<svg width="24" height="24" viewBox="0 0 24 24" fill="none" xmlns="http://www.w3.org/2000/svg">
<path fill-rule="evenodd" clip-rule="evenodd" d="M12 2.92792C11.132 2.92792 10.2806 3.16575 9.53831 3.61558L4.5383 6.64559C3.8398 7.06886 3.26225 7.6651 2.86141 8.37671C2.46057 9.08832 2.24999 9.89128 2.25 10.708V17C2.25 18.2598 2.75045 19.468 3.64124 20.3588C4.53204 21.2496 5.74022 21.75 7 21.75H17C18.2598 21.75 19.468 21.2496 20.3588 20.3588C21.2496 19.468 21.75 18.2598 21.75 17V10.7068C21.7498 9.89029 21.5391 9.08758 21.1383 8.37619C20.7375 7.6648 20.16 7.06875 19.4617 6.64559L14.4617 3.61558C13.7194 3.16575 12.868 2.92792 12 2.92792ZM9 16.25C8.58579 16.25 8.25 16.5858 8.25 17C8.25 17.4142 8.58579 17.75 9 17.75H15C15.4142 17.75 15.75 17.4142 15.75 17C15.75 16.5858 15.4142 16.25 15 16.25H9Z" fill="currentColor"/>
</svg>
