<svg width="115" height="30" viewBox="0 0 115 30" fill="none" xmlns="http://www.w3.org/2000/svg">
<path d="M43.5999 30C41.6117 30 39.9999 28.3882 39.9999 26.4V22.5C39.9999 21.1193 41.1192 20 42.4999 20C43.8807 20 44.9999 18.8807 44.9999 17.5C44.9999 16.1193 46.1192 15 47.4999 15H57.4999C58.8807 15 59.9999 13.8807 59.9999 12.5C59.9999 11.1193 61.1192 10 62.4999 10C63.8807 10 64.9999 8.88072 64.9999 7.5C64.9999 6.11929 63.8807 5 62.4999 5H52.4999C51.1192 5 49.9999 6.11929 49.9999 7.5C49.9999 8.88072 48.8807 10 47.4999 10H42.4999C41.1192 10 39.9999 8.88072 39.9999 7.5C39.9999 6.11929 41.1192 5 42.4999 5C43.8807 5 44.9999 3.88072 44.9999 2.50001C44.9999 1.1193 46.1192 8.39233e-06 47.4999 8.39233e-06H67.4999C68.8806 8.39233e-06 69.9999 1.1193 69.9999 2.50001C69.9999 3.88072 71.1192 5 72.4999 5C73.8806 5 74.9999 6.11929 74.9999 7.5V11.4C74.9999 13.3882 73.3882 15 71.3999 15H67.4999C66.1192 15 64.9999 16.1193 64.9999 17.5C64.9999 18.8807 63.8807 20 62.4999 20H57.4999C56.1192 20 54.9999 21.1193 54.9999 22.5C54.9999 23.8807 56.1192 25 57.4999 25H72.4999C73.8806 25 74.9999 26.1193 74.9999 27.5C74.9999 28.8807 73.8806 30 72.4999 30H43.5999Z" fill="#23D21F"/>
<path fill-rule="evenodd" clip-rule="evenodd" d="M2.5 25C3.88071 25 5 26.1193 5 27.5C5 28.8807 6.11929 30 7.5 30H27.5C28.8807 30 30 28.8807 30 27.5C30 26.1193 31.1193 25 32.5 25C33.8807 25 35 23.8807 35 22.5V12.5C35 11.1193 33.8807 10 32.5 10C31.1193 10 30 8.88071 30 7.5C30 6.11929 28.8807 5 27.5 5H7.5C6.11929 5 5 3.88071 5 2.5C5 1.11929 3.88071 0 2.5 0C1.11929 0 0 1.11929 0 2.5V22.5C0 23.8807 1.11929 25 2.5 25ZM10 13.6C10 11.6118 11.6118 10 13.6 10H26.3751C28.3633 10 29.9751 11.6118 29.9751 13.6V16.4C29.9751 18.3882 28.3633 20 26.3751 20H13.6C11.6118 20 10 18.3882 10 16.4V13.6Z" fill="#23D21F"/>
<path fill-rule="evenodd" clip-rule="evenodd" d="M82.4999 25C83.8806 25 84.9999 26.1193 84.9999 27.5C84.9999 28.8807 86.1192 30 87.4999 30H107.5C108.881 30 110 28.8807 110 27.5C110 26.1193 111.119 25 112.5 25C113.881 25 115 23.8807 115 22.5V12.5C115 11.1193 113.881 10 112.5 10C111.119 10 110 8.88071 110 7.5C110 6.11929 108.881 5 107.5 5H87.4999C86.1192 5 84.9999 3.88071 84.9999 2.5C84.9999 1.11929 83.8806 0 82.4999 0C81.1192 0 79.9999 1.11929 79.9999 2.5V22.5C79.9999 23.8807 81.1192 25 82.4999 25ZM89.9999 13.6C89.9999 11.6118 91.6117 10 93.5999 10H106.375C108.363 10 109.975 11.6118 109.975 13.6V16.4C109.975 18.3882 108.363 20 106.375 20H93.5999C91.6117 20 89.9999 18.3882 89.9999 16.4V13.6Z" fill="#23D21F"/>
</svg>
